<svg xmlns="http://www.w3.org/2000/svg" width="16" height="16" viewBox="0 0 16 16" fill="none">
  <!-- Chat bubble -->
  <path d="M2.5 3.5 H12.5 A1.5 1.5 0 0 1 14 5 V10 A1.5 1.5 0 0 1 12.5 11.5 H6.5 L4 14 V11.5 H2.5 A1.5 1.5 0 0 1 1 10 V5 A1.5 1.5 0 0 1 2.5 3.5 Z"
        stroke="#3A8DFF" stroke-width="1.2" stroke-linejoin="round" fill="none"/>
  <!-- AI sparkle inside -->
  <path d="M7.5 6 L8 7 L9 7.5 L8 8 L7.5 9 L7 8 L6 7.5 L7 7 Z"
        fill="#FFB020"/>
  <circle cx="10.5" cy="8" r="0.6" fill="#3A8DFF"/>
  <circle cx="5.5" cy="8" r="0.6" fill="#3A8DFF"/>
</svg>
