<svg xmlns="http://www.w3.org/2000/svg" width="16" height="16" viewBox="0 0 16 16" fill="none">
  <!-- Gear -->
  <g stroke="#5C6BC0" stroke-width="1.1" stroke-linejoin="round" fill="none">
    <path d="M8 2.2 L9.0 2.4 L9.4 1.4 L10.6 1.9 L10.5 3.0 L11.4 3.5 L12.3 2.9 L13.1 3.7 L12.5 4.6 L13.0 5.5 L14.1 5.4 L14.6 6.6 L13.6 7.0 L13.6 8.0 L14.6 8.4 L14.1 9.6 L13.0 9.5 L12.5 10.4 L13.1 11.3 L12.3 12.1 L11.4 11.5 L10.5 12.0 L10.6 13.1 L9.4 13.6 L9.0 12.6 L8 12.8 L7.0 12.6 L6.6 13.6 L5.4 13.1 L5.5 12.0 L4.6 11.5 L3.7 12.1 L2.9 11.3 L3.5 10.4 L3.0 9.5 L1.9 9.6 L1.4 8.4 L2.4 8.0 L2.4 7.0 L1.4 6.6 L1.9 5.4 L3.0 5.5 L3.5 4.6 L2.9 3.7 L3.7 2.9 L4.6 3.5 L5.5 3.0 L5.4 1.9 L6.6 1.4 L7.0 2.4 Z"/>
    <circle cx="8" cy="7.5" r="2.2"/>
  </g>
  <!-- AI sparkle badge -->
  <path d="M12.4 11.6 L12.7 12.3 L13.4 12.6 L12.7 12.9 L12.4 13.6 L12.1 12.9 L11.4 12.6 L12.1 12.3 Z"
        fill="#FFB020"/>
</svg>
