<?xml version="1.0" encoding="UTF-8" standalone="no"?>
<!-- Generic archive (zip / tar / 7z / rar / gz): brown sheet with zipper. -->
<svg xmlns="http://www.w3.org/2000/svg" width="16" height="16" viewBox="0 0 16 16">
  <path d="M3 1.6 h7.2 l3.2 3.2 v9.6 a0.8 0.8 0 0 1 -0.8 0.8 h-9.6 a0.8 0.8 0 0 1 -0.8 -0.8 v-12 a0.8 0.8 0 0 1 0.8 -0.8 z" fill="#8B5A2B"/>
  <path d="M10.2 1.6 v3.2 h3.2 z" fill="#5A3A1B"/>
  <rect x="7.4" y="2.2" width="1.2" height="1.4" fill="#FFFFFF"/>
  <rect x="7.4" y="4.0" width="1.2" height="1.4" fill="#FFFFFF"/>
  <rect x="7.4" y="5.8" width="1.2" height="1.4" fill="#FFFFFF"/>
  <rect x="7.4" y="7.6" width="1.2" height="1.4" fill="#FFFFFF"/>
  <rect x="6.8" y="9.4" width="2.4" height="3.2" rx="0.4" fill="#FFFFFF"/>
  <rect x="7.6" y="10.4" width="0.8" height="1.4" fill="#8B5A2B"/>
</svg>
