<?xml version="1.0" ?>
<!DOCTYPE svg  PUBLIC '-//W3C//DTD SVG 1.1//EN'  'http://www.w3.org/Graphics/SVG/1.1/DTD/svg11.dtd'>
<!-- Uploaded to: SVG Repo, www.svgrepo.com, Generator: SVG Repo Mixer Tools -->
<svg width="800px" height="800px" viewBox="0 0 32 32" enable-background="new 0 0 32 32" version="1.1" xml:space="preserve" xmlns="http://www.w3.org/2000/svg" xmlns:xlink="http://www.w3.org/1999/xlink">
<g id="Layer_2"/>
<g id="Layer_3"/>
<g id="Layer_4"/>
<g id="Layer_5"/>
<g id="Layer_6"/>
<g id="Layer_7"/>
<g id="Layer_8"/>
<g id="Layer_9"/>
<g id="Layer_10"/>
<g id="Layer_11"/>
<g id="Layer_12"/>
<g id="Layer_13"/>
<g id="Layer_14"/>
<g id="Layer_15"/>
<g id="Layer_16"/>
<g id="Layer_17"/>
<g id="Layer_18"/>
<g id="Layer_19"/>
<g id="Layer_20"/>
<g id="Layer_21"/>
<g id="Layer_22"/>
<g id="Layer_23"/>
<g id="Layer_24">
<g>
<path d="M17.7998,13.75c-0.2813,0-0.5615-0.1187-0.7588-0.3491c-0.3599-0.4194-0.3115-1.0508,0.1084-1.4102    l8.6904-7.4502c0.4189-0.3579,1.0508-0.3101,1.4092,0.1084c0.3604,0.4194,0.3115,1.0508-0.1084,1.4102l-8.6904,7.4502    C18.2617,13.6709,18.0303,13.75,17.7998,13.75z" fill="#00ACBA"/>
</g>
<g>
<path d="M26.4902,27.7002c-0.2305,0-0.4619-0.0791-0.6504-0.2407l-8.6904-7.4502    c-0.4199-0.3594-0.4683-0.9907-0.1084-1.4102c0.3594-0.4194,0.9912-0.4668,1.4092-0.1084l8.6904,7.4502    c0.4199,0.3594,0.4688,0.9907,0.1084,1.4102C27.0518,27.5815,26.7715,27.7002,26.4902,27.7002z" fill="#00ACBA"/>
</g>
<g>
<path d="M7.1201,23.8799c-0.2559,0-0.5117-0.0977-0.707-0.293c-0.3906-0.3906-0.3906-1.0234,0-1.4141    l3.3398-3.3398c0.3906-0.3906,1.0234-0.3906,1.4141,0s0.3906,1.0234,0,1.4141l-3.3398,3.3398    C7.6318,23.7822,7.376,23.8799,7.1201,23.8799z" fill="#00ACBA"/>
</g>
<g>
<path d="M10.46,13.46c-0.2559,0-0.5117-0.0977-0.707-0.293L6.4131,9.8271c-0.3906-0.3906-0.3906-1.0234,0-1.4141    s1.0234-0.3906,1.4141,0l3.3398,3.3398c0.3906,0.3906,0.3906,1.0234,0,1.4141C10.9717,13.3623,10.7158,13.46,10.46,13.46z" fill="#00ACBA"/>
</g>
<g>
<path d="M24,17h-5c-0.5527,0-1-0.4478-1-1s0.4473-1,1-1h5c0.5527,0,1,0.4478,1,1S24.5527,17,24,17z" fill="#00ACBA"/>
</g>
<g>
<path d="M14,22c-1.5957,0-3.1025-0.6211-4.2432-1.749C8.6211,19.1025,8,17.5957,8,16s0.6211-3.1025,1.749-4.2432    C10.8975,10.6211,12.4043,10,14,10c1.75,0,3.4111,0.7646,4.5576,2.0981C19.4873,13.1763,20,14.5625,20,16    s-0.5127,2.8237-1.4424,3.9028C17.4111,21.2354,15.75,22,14,22z M14,12c-1.0654,0-2.0732,0.416-2.8369,1.1709    C10.416,13.9268,10,14.9346,10,16s0.416,2.0732,1.1709,2.8369C11.9268,19.584,12.9346,20,14,20    c1.167,0,2.2754-0.5112,3.042-1.4019C17.6602,17.8809,18,16.9585,18,16s-0.3398-1.8809-0.958-2.5972    C16.2754,12.5112,15.167,12,14,12z" fill="#0181B0"/>
</g>
<g>
<path d="M5,11c-2.2056,0-4-1.7944-4-4s1.7944-4,4-4s4,1.7944,4,4S7.2056,11,5,11z M5,5C3.897,5,3,5.897,3,7    s0.897,2,2,2s2-0.897,2-2S6.103,5,5,5z" fill="#F5D803"/>
</g>
<g>
<path d="M28,7c-1.6543,0-3-1.3457-3-3s1.3457-3,3-3s3,1.3457,3,3S29.6543,7,28,7z M28,3c-0.5518,0-1,0.4487-1,1    s0.4482,1,1,1s1-0.4487,1-1S28.5518,3,28,3z" fill="#F5D803"/>
</g>
<g>
<path d="M26,19c-1.6543,0-3-1.3457-3-3s1.3457-3,3-3s3,1.3457,3,3S27.6543,19,26,19z M26,15    c-0.5518,0-1,0.4487-1,1s0.4482,1,1,1s1-0.4487,1-1S26.5518,15,26,15z" fill="#F5D803"/>
</g>
<g>
<path d="M28,31c-1.6543,0-3-1.3457-3-3s1.3457-3,3-3s3,1.3457,3,3S29.6543,31,28,31z M28,27    c-0.5518,0-1,0.4487-1,1s0.4482,1,1,1s1-0.4487,1-1S28.5518,27,28,27z" fill="#F5D803"/>
</g>
<g>
<path d="M5,29c-2.2056,0-4-1.7944-4-4s1.7944-4,4-4s4,1.7944,4,4S7.2056,29,5,29z M5,23c-1.103,0-2,0.897-2,2    s0.897,2,2,2s2-0.897,2-2S6.103,23,5,23z" fill="#F5D803"/>
</g>
</g>
<g id="Layer_25"/>
<g id="Layer_26"/>
</svg>