<?xml version="1.0" encoding="UTF-8"?>
<!-- Uploaded to: SVG Repo, www.svgrepo.com, Generator: SVG Repo Mixer Tools -->
<svg width="800px" height="800px" viewBox="0 0 100 100" xmlns="http://www.w3.org/2000/svg" version="1.1">

  <path style="fill:#D9D58F;stroke:#222;stroke-width:2" d="m 2,88 c 0,-1 0,-63 0,-63 0,0 -0.6,-5 4.4,-5 -1,0 5.6,0 5.6,0 l 0,-6 c 0,0 0,-3 3,-3 l 17,0 c 0,0 3,0 3,3 l 0,6 43,0 c 0,0 4,0 4,4 l 0,64 z"/>
  <path style="fill:#E8DC88;stroke:#222;stroke-width:2;fill-opacity:0.7" d="M 2,88 17,54 c 0,0 1,-5 9,-5 11,0 65,0 65,0 0,0 9,0 7,5 -2,5 -14,34 -14,34 z"/>

</svg>