<?xml version="1.0" encoding="utf-8"?>
<!-- Uploaded to: SVG Repo, www.svgrepo.com, Generator: SVG Repo Mixer Tools -->
<svg width="800px" height="800px" viewBox="0 0 1024 1024" class="icon"  version="1.1" xmlns="http://www.w3.org/2000/svg"><path d="M753.3 960.2H275c-45.2 0-81.9-36.7-81.9-81.9V146.1c0-45.2 36.7-81.9 81.9-81.9h478.3c45.2 0 81.9 36.7 81.9 81.9v732.3c0 45.2-36.7 81.8-81.9 81.8z" fill="#383838" /><path d="M736.3 368.9H291.9c-18.5 0-33.4-15-33.4-33.4V174c0-18.5 15-33.4 33.4-33.4h444.4c18.5 0 33.4 15 33.4 33.4v161.5c0 18.5-14.9 33.4-33.4 33.4zM514.1 541.6c-32.2 0-58.3-26.1-58.3-58.3 0-32.2 26.1-58.3 58.3-58.3 32.2 0 58.3 26.1 58.3 58.3 0 32.2-26.1 58.3-58.3 58.3zM316.8 541.6c-32.2 0-58.3-26.1-58.3-58.3 0-32.2 26.1-58.3 58.3-58.3 32.2 0 58.3 26.1 58.3 58.3 0 32.2-26.1 58.3-58.3 58.3zM316.8 707.9c-32.2 0-58.3-26.1-58.3-58.3 0-32.2 26.1-58.3 58.3-58.3 32.2 0 58.3 26.1 58.3 58.3 0 32.2-26.1 58.3-58.3 58.3zM514.1 879.5H316.8c-32.2 0-58.3-26.1-58.3-58.3 0-32.2 26.1-58.3 58.3-58.3h197.3c32.2 0 58.3 26.1 58.3 58.3 0 32.3-26.1 58.3-58.3 58.3zM514.1 707.9c-32.2 0-58.3-26.1-58.3-58.3 0-32.2 26.1-58.3 58.3-58.3 32.2 0 58.3 26.1 58.3 58.3 0 32.2-26.1 58.3-58.3 58.3z" fill="#bfbfbf" /><path d="M711.5 707.9c-32.2 0-58.3-26.1-58.3-58.3 0-32.2 26.1-58.3 58.3-58.3 32.2 0 58.3 26.1 58.3 58.3-0.1 32.2-26.1 58.3-58.3 58.3zM711.5 879.5c-32.2 0-58.3-26.1-58.3-58.3 0-32.2 26.1-58.3 58.3-58.3 32.2 0 58.3 26.1 58.3 58.3-0.1 32.3-26.1 58.3-58.3 58.3zM711.5 541.6c-32.2 0-58.3-26.1-58.3-58.3 0-32.2 26.1-58.3 58.3-58.3 32.2 0 58.3 26.1 58.3 58.3-0.1 32.2-26.1 58.3-58.3 58.3z" fill="#FF6700" /></svg>