<?xml version="1.0" encoding="UTF-8" standalone="no"?>
<!-- JSON file: teal sheet with curly-brace glyph. -->
<svg xmlns="http://www.w3.org/2000/svg" width="16" height="16" viewBox="0 0 16 16">
  <path d="M3 1.6 h7.2 l3.2 3.2 v9.6 a0.8 0.8 0 0 1 -0.8 0.8 h-9.6 a0.8 0.8 0 0 1 -0.8 -0.8 v-12 a0.8 0.8 0 0 1 0.8 -0.8 z" fill="#1F9D8E"/>
  <path d="M10.2 1.6 v3.2 h3.2 z" fill="#147066"/>
  <path d="M7.0 7.4 q-1.2 0 -1.2 1.2 v0.6 q0 0.6 -0.8 0.6 q0.8 0 0.8 0.6 v0.6 q0 1.2 1.2 1.2"
        fill="none" stroke="#FFFFFF" stroke-width="1.0" stroke-linecap="round" stroke-linejoin="round"/>
  <path d="M9.0 7.4 q1.2 0 1.2 1.2 v0.6 q0 0.6 0.8 0.6 q-0.8 0 -0.8 0.6 v0.6 q0 1.2 -1.2 1.2"
        fill="none" stroke="#FFFFFF" stroke-width="1.0" stroke-linecap="round" stroke-linejoin="round"/>
</svg>
