<?xml version="1.0" encoding="iso-8859-1"?>

<!DOCTYPE svg PUBLIC "-//W3C//DTD SVG 1.1//EN" "http://www.w3.org/Graphics/SVG/1.1/DTD/svg11.dtd">
<!-- Uploaded to: SVG Repo, www.svgrepo.com, Generator: SVG Repo Mixer Tools -->
<svg version="1.1" id="_x35_" xmlns="http://www.w3.org/2000/svg" xmlns:xlink="http://www.w3.org/1999/xlink" 
	 viewBox="0 0 512 512"  xml:space="preserve">
<g>
	<g>
		<g>
			<rect x="376.309" y="88.836" style="fill:#EAB528;" width="107.385" height="49.406"/>
		</g>
		<g>
			<rect x="382.561" y="23.818" style="fill:#962229;" width="107.385" height="49.406"/>
		</g>
		<g>
			<rect x="370.057" y="153.854" style="fill:#188A96;" width="107.386" height="49.405"/>
		</g>
		<g style="opacity:0.1;">
			<rect x="358.043" y="88.836" style="fill:#060001;" width="107.386" height="49.406"/>
		</g>
		<g style="opacity:0.1;">
			<rect x="358.043" y="23.818" style="fill:#060001;" width="107.386" height="49.406"/>
		</g>
		<g style="opacity:0.1;">
			<rect x="358.043" y="153.854" style="fill:#060001;" width="107.386" height="49.405"/>
		</g>
		<g>
			<rect x="47.456" style="fill:#F2F2F2;" width="399.057" height="511.972"/>
		</g>
		<g>
			<rect x="5.912" style="fill:#E88617;" width="138.332" height="511.972"/>
		</g>
		<g>
			<rect style="fill:#7D6736;" width="11.823" height="511.972"/>
		</g>
		<g>
			<path style="fill:#FFFFFF;" d="M47.444,80.523L87.69,54.556H47.444V41.753h65.571v11.42l-40.157,25.97h40.157v12.8H47.444V80.523
				z"/>
			<path style="fill:#FFFFFF;" d="M71.479,140.932c-4.358,0-7.996-0.354-10.912-1.057c-2.917-0.707-5.511-2.165-7.783-4.376
				c-1.592-1.533-2.978-3.514-4.145-5.94c-1.167-2.426-1.75-5.418-1.75-8.977c0-3.563,0.583-6.541,1.75-8.936
				c1.167-2.392,2.553-4.358,4.145-5.892c2.334-2.148,4.942-3.593,7.831-4.327c2.883-0.738,6.506-1.105,10.864-1.105
				c4.358,0,7.968,0.367,10.823,1.105c2.855,0.734,5.443,2.179,7.784,4.327c1.592,1.534,2.971,3.501,4.138,5.892
				c1.167,2.395,1.751,5.373,1.751,8.936c0,3.558-0.584,6.551-1.751,8.977c-1.167,2.426-2.546,4.407-4.138,5.94
				c-2.34,2.148-4.928,3.593-7.784,4.328C79.447,140.565,75.837,140.932,71.479,140.932z M71.479,128.963
				c2.457,0,4.695-0.155,6.726-0.464c2.025-0.305,3.652-1.074,4.88-2.299c1.407-1.414,2.113-3.288,2.113-5.617
				c0-2.276-0.706-4.115-2.113-5.528c-1.229-1.229-2.855-1.994-4.88-2.303c-2.031-0.305-4.269-0.46-6.726-0.46
				c-2.519,0-4.79,0.155-6.815,0.46c-2.025,0.309-3.652,1.075-4.88,2.303c-1.413,1.413-2.12,3.253-2.12,5.528
				c0,2.33,0.707,4.203,2.12,5.617c1.229,1.225,2.855,1.994,4.88,2.299C66.689,128.808,68.96,128.963,71.479,128.963z"/>
			<path style="fill:#FFFFFF;" d="M47.444,163.402c0-2.453,0.398-4.557,1.194-6.307c0.803-1.75,1.846-3.191,3.137-4.327
				c1.283-1.139,2.745-1.966,4.372-2.488c1.626-0.522,3.301-0.783,5.017-0.783h23.761v-5.065h9.114v5.065h14.186v11.973H94.039
				v8.473h-9.114v-8.473H61.905c-2.889,0-4.33,1.38-4.33,4.142v4.331h-10.13V163.402z"/>
			<path style="fill:#FFFFFF;" d="M67.704,186.24c-3.13,0-5.697,0.888-7.687,2.673c-1.997,1.778-2.999,4.386-2.999,7.828
				c0,2.639,0.384,4.726,1.153,6.259c0.769,1.534,1.888,3.071,3.363,4.605l-7.09,7.275c-1.229-1.229-2.32-2.458-3.274-3.683
				c-0.947-1.229-1.751-2.563-2.389-4.008c-0.645-1.441-1.125-3.023-1.427-4.742c-0.309-1.719-0.467-3.651-0.467-5.799
				c0-2.824,0.37-5.573,1.112-8.242c0.734-2.67,2.038-5.034,3.912-7.09c1.874-2.059,4.385-3.716,7.549-4.976
				c3.164-1.256,7.166-1.888,12.018-1.888c3.926,0,7.412,0.508,10.452,1.52c3.04,1.013,5.601,2.44,7.687,4.283
				c2.086,1.843,3.672,4.035,4.743,6.585c1.077,2.546,1.613,5.388,1.613,8.517c0,3.315-0.57,6.277-1.702,8.888
				c-1.139,2.608-2.732,4.801-4.791,6.582c-2.059,1.781-4.509,3.133-7.364,4.053c-2.855,0.923-5.971,1.382-9.348,1.382h-5.065
				V186.24z M75.899,204.475c1.043-0.062,1.95-0.155,2.718-0.278c0.769-0.123,1.578-0.398,2.444-0.827
				c1.407-0.676,2.587-1.675,3.541-2.992c0.954-1.321,1.427-2.996,1.427-5.021c0-2.025-0.474-3.699-1.427-5.02
				c-0.954-1.318-2.134-2.316-3.541-2.993c-0.865-0.429-1.675-0.707-2.444-0.827c-0.768-0.124-1.675-0.216-2.718-0.278V204.475z"/>
			<path style="fill:#FFFFFF;" d="M81.06,262.767c-0.68,1.29-1.263,2.269-1.75,2.948c-0.495,0.673-1.078,1.348-1.751,2.024
				c-1.537,1.411-3.225,2.44-5.065,3.085c-1.846,0.645-3.932,0.968-6.266,0.968c-2.882,0-5.477-0.46-7.783-1.383
				c-2.299-0.919-4.262-2.255-5.889-4.004c-1.626-1.75-2.889-3.867-3.775-6.355c-0.892-2.484-1.338-5.264-1.338-8.335v-27.443
				h65.571v26.337c0,3.072-0.433,5.865-1.29,8.384c-0.865,2.515-2.073,4.65-3.638,6.4c-1.565,1.75-3.452,3.098-5.662,4.049
				c-2.217,0.954-4.701,1.428-7.46,1.428C88.699,270.869,84.066,268.168,81.06,262.767z M58.865,250.427
				c0,2.639,0.72,4.725,2.162,6.263c1.441,1.533,3.425,2.302,5.944,2.302c2.512,0,4.475-0.769,5.889-2.302
				c1.414-1.538,2.12-3.624,2.12-6.263v-13.352H58.865V250.427z M86.489,249.597c0,2.639,0.68,4.712,2.025,6.218
				c1.352,1.503,3.191,2.255,5.525,2.255c2.333,0,4.18-0.752,5.532-2.255c1.345-1.507,2.025-3.579,2.025-6.218v-12.522H86.489
				V249.597z"/>
			<path style="fill:#FFFFFF;" d="M71.479,318.572c-4.358,0-7.996-0.353-10.912-1.057c-2.917-0.707-5.511-2.165-7.783-4.376
				c-1.592-1.534-2.978-3.514-4.145-5.94c-1.167-2.426-1.75-5.418-1.75-8.977c0-3.562,0.583-6.54,1.75-8.935
				c1.167-2.392,2.553-4.359,4.145-5.892c2.334-2.148,4.942-3.593,7.831-4.327c2.883-0.738,6.506-1.105,10.864-1.105
				c4.358,0,7.968,0.368,10.823,1.105c2.855,0.734,5.443,2.179,7.784,4.327c1.592,1.533,2.971,3.5,4.138,5.892
				c1.167,2.395,1.751,5.374,1.751,8.935c0,3.559-0.584,6.551-1.751,8.977c-1.167,2.426-2.546,4.406-4.138,5.94
				c-2.34,2.148-4.928,3.593-7.784,4.327C79.447,318.204,75.837,318.572,71.479,318.572z M71.479,306.602
				c2.457,0,4.695-0.154,6.726-0.463c2.025-0.305,3.652-1.074,4.88-2.299c1.407-1.414,2.113-3.288,2.113-5.618
				c0-2.275-0.706-4.114-2.113-5.528c-1.229-1.229-2.855-1.994-4.88-2.302c-2.031-0.306-4.269-0.46-6.726-0.46
				c-2.519,0-4.79,0.154-6.815,0.46c-2.025,0.309-3.652,1.074-4.88,2.302c-1.413,1.414-2.12,3.253-2.12,5.528
				c0,2.33,0.707,4.204,2.12,5.618c1.229,1.225,2.855,1.994,4.88,2.299C66.689,306.448,68.96,306.602,71.479,306.602z"/>
			<path style="fill:#FFFFFF;" d="M71.479,364.616c-4.358,0-7.996-0.354-10.912-1.057c-2.917-0.707-5.511-2.165-7.783-4.375
				c-1.592-1.534-2.978-3.514-4.145-5.941c-1.167-2.426-1.75-5.419-1.75-8.977c0-3.562,0.583-6.541,1.75-8.936
				c1.167-2.391,2.553-4.358,4.145-5.892c2.334-2.148,4.942-3.593,7.831-4.327c2.883-0.738,6.506-1.105,10.864-1.105
				c4.358,0,7.968,0.367,10.823,1.105c2.855,0.734,5.443,2.179,7.784,4.327c1.592,1.534,2.971,3.501,4.138,5.892
				c1.167,2.395,1.751,5.374,1.751,8.936c0,3.558-0.584,6.551-1.751,8.977c-1.167,2.427-2.546,4.406-4.138,5.941
				c-2.34,2.148-4.928,3.592-7.784,4.327C79.447,364.25,75.837,364.616,71.479,364.616z M71.479,352.647
				c2.457,0,4.695-0.155,6.726-0.463c2.025-0.306,3.652-1.075,4.88-2.299c1.407-1.414,2.113-3.288,2.113-5.617
				c0-2.275-0.706-4.114-2.113-5.528c-1.229-1.229-2.855-1.994-4.88-2.303c-2.031-0.305-4.269-0.46-6.726-0.46
				c-2.519,0-4.79,0.155-6.815,0.46c-2.025,0.309-3.652,1.075-4.88,2.303c-1.413,1.414-2.12,3.253-2.12,5.528
				c0,2.33,0.707,4.203,2.12,5.617c1.229,1.225,2.855,1.994,4.88,2.299C66.689,352.492,68.96,352.647,71.479,352.647z"/>
			<path style="fill:#FFFFFF;" d="M47.444,400.902l19.985-11.788l-5.71-5.065H47.444v-11.973h65.571v11.973H75.81l19.615,15.929
				v14.461l-19.34-17.13l-28.64,18.417V400.902z"/>
		</g>
		<g>
			<path style="fill:#FFFFFF;" d="M47.444,80.523L87.69,54.556H47.444V41.753h65.571v11.42l-40.157,25.97h40.157v12.8H47.444V80.523
				z"/>
			<path style="fill:#FFFFFF;" d="M71.479,140.932c-4.358,0-7.996-0.354-10.912-1.057c-2.917-0.707-5.511-2.165-7.783-4.376
				c-1.592-1.533-2.978-3.514-4.145-5.94c-1.167-2.426-1.75-5.418-1.75-8.977c0-3.563,0.583-6.541,1.75-8.936
				c1.167-2.392,2.553-4.358,4.145-5.892c2.334-2.148,4.942-3.593,7.831-4.327c2.883-0.738,6.506-1.105,10.864-1.105
				c4.358,0,7.968,0.367,10.823,1.105c2.855,0.734,5.443,2.179,7.784,4.327c1.592,1.534,2.971,3.501,4.138,5.892
				c1.167,2.395,1.751,5.373,1.751,8.936c0,3.558-0.584,6.551-1.751,8.977c-1.167,2.426-2.546,4.407-4.138,5.94
				c-2.34,2.148-4.928,3.593-7.784,4.328C79.447,140.565,75.837,140.932,71.479,140.932z M71.479,128.963
				c2.457,0,4.695-0.155,6.726-0.464c2.025-0.305,3.652-1.074,4.88-2.299c1.407-1.414,2.113-3.288,2.113-5.617
				c0-2.276-0.706-4.115-2.113-5.528c-1.229-1.229-2.855-1.994-4.88-2.303c-2.031-0.305-4.269-0.46-6.726-0.46
				c-2.519,0-4.79,0.155-6.815,0.46c-2.025,0.309-3.652,1.075-4.88,2.303c-1.413,1.413-2.12,3.253-2.12,5.528
				c0,2.33,0.707,4.203,2.12,5.617c1.229,1.225,2.855,1.994,4.88,2.299C66.689,128.808,68.96,128.963,71.479,128.963z"/>
			<path style="fill:#FFFFFF;" d="M47.444,163.402c0-2.453,0.398-4.557,1.194-6.307c0.803-1.75,1.846-3.191,3.137-4.327
				c1.283-1.139,2.745-1.966,4.372-2.488c1.626-0.522,3.301-0.783,5.017-0.783h23.761v-5.065h9.114v5.065h14.186v11.973H94.039
				v8.473h-9.114v-8.473H61.905c-2.889,0-4.33,1.38-4.33,4.142v4.331h-10.13V163.402z"/>
			<path style="fill:#FFFFFF;" d="M67.704,186.24c-3.13,0-5.697,0.888-7.687,2.673c-1.997,1.778-2.999,4.386-2.999,7.828
				c0,2.639,0.384,4.726,1.153,6.259c0.769,1.534,1.888,3.071,3.363,4.605l-7.09,7.275c-1.229-1.229-2.32-2.458-3.274-3.683
				c-0.947-1.229-1.751-2.563-2.389-4.008c-0.645-1.441-1.125-3.023-1.427-4.742c-0.309-1.719-0.467-3.651-0.467-5.799
				c0-2.824,0.37-5.573,1.112-8.242c0.734-2.67,2.038-5.034,3.912-7.09c1.874-2.059,4.385-3.716,7.549-4.976
				c3.164-1.256,7.166-1.888,12.018-1.888c3.926,0,7.412,0.508,10.452,1.52c3.04,1.013,5.601,2.44,7.687,4.283
				c2.086,1.843,3.672,4.035,4.743,6.585c1.077,2.546,1.613,5.388,1.613,8.517c0,3.315-0.57,6.277-1.702,8.888
				c-1.139,2.608-2.732,4.801-4.791,6.582c-2.059,1.781-4.509,3.133-7.364,4.053c-2.855,0.923-5.971,1.382-9.348,1.382h-5.065
				V186.24z M75.899,204.475c1.043-0.062,1.95-0.155,2.718-0.278c0.769-0.123,1.578-0.398,2.444-0.827
				c1.407-0.676,2.587-1.675,3.541-2.992c0.954-1.321,1.427-2.996,1.427-5.021c0-2.025-0.474-3.699-1.427-5.02
				c-0.954-1.318-2.134-2.316-3.541-2.993c-0.865-0.429-1.675-0.707-2.444-0.827c-0.768-0.124-1.675-0.216-2.718-0.278V204.475z"/>
			<path style="fill:#FFFFFF;" d="M81.06,262.767c-0.68,1.29-1.263,2.269-1.75,2.948c-0.495,0.673-1.078,1.348-1.751,2.024
				c-1.537,1.411-3.225,2.44-5.065,3.085c-1.846,0.645-3.932,0.968-6.266,0.968c-2.882,0-5.477-0.46-7.783-1.383
				c-2.299-0.919-4.262-2.255-5.889-4.004c-1.626-1.75-2.889-3.867-3.775-6.355c-0.892-2.484-1.338-5.264-1.338-8.335v-27.443
				h65.571v26.337c0,3.072-0.433,5.865-1.29,8.384c-0.865,2.515-2.073,4.65-3.638,6.4c-1.565,1.75-3.452,3.098-5.662,4.049
				c-2.217,0.954-4.701,1.428-7.46,1.428C88.699,270.869,84.066,268.168,81.06,262.767z M58.865,250.427
				c0,2.639,0.72,4.725,2.162,6.263c1.441,1.533,3.425,2.302,5.944,2.302c2.512,0,4.475-0.769,5.889-2.302
				c1.414-1.538,2.12-3.624,2.12-6.263v-13.352H58.865V250.427z M86.489,249.597c0,2.639,0.68,4.712,2.025,6.218
				c1.352,1.503,3.191,2.255,5.525,2.255c2.333,0,4.18-0.752,5.532-2.255c1.345-1.507,2.025-3.579,2.025-6.218v-12.522H86.489
				V249.597z"/>
			<path style="fill:#FFFFFF;" d="M71.479,318.572c-4.358,0-7.996-0.353-10.912-1.057c-2.917-0.707-5.511-2.165-7.783-4.376
				c-1.592-1.534-2.978-3.514-4.145-5.94c-1.167-2.426-1.75-5.418-1.75-8.977c0-3.562,0.583-6.54,1.75-8.935
				c1.167-2.392,2.553-4.359,4.145-5.892c2.334-2.148,4.942-3.593,7.831-4.327c2.883-0.738,6.506-1.105,10.864-1.105
				c4.358,0,7.968,0.368,10.823,1.105c2.855,0.734,5.443,2.179,7.784,4.327c1.592,1.533,2.971,3.5,4.138,5.892
				c1.167,2.395,1.751,5.374,1.751,8.935c0,3.559-0.584,6.551-1.751,8.977c-1.167,2.426-2.546,4.406-4.138,5.94
				c-2.34,2.148-4.928,3.593-7.784,4.327C79.447,318.204,75.837,318.572,71.479,318.572z M71.479,306.602
				c2.457,0,4.695-0.154,6.726-0.463c2.025-0.305,3.652-1.074,4.88-2.299c1.407-1.414,2.113-3.288,2.113-5.618
				c0-2.275-0.706-4.114-2.113-5.528c-1.229-1.229-2.855-1.994-4.88-2.302c-2.031-0.306-4.269-0.46-6.726-0.46
				c-2.519,0-4.79,0.154-6.815,0.46c-2.025,0.309-3.652,1.074-4.88,2.302c-1.413,1.414-2.12,3.253-2.12,5.528
				c0,2.33,0.707,4.204,2.12,5.618c1.229,1.225,2.855,1.994,4.88,2.299C66.689,306.448,68.96,306.602,71.479,306.602z"/>
			<path style="fill:#FFFFFF;" d="M71.479,364.616c-4.358,0-7.996-0.354-10.912-1.057c-2.917-0.707-5.511-2.165-7.783-4.375
				c-1.592-1.534-2.978-3.514-4.145-5.941c-1.167-2.426-1.75-5.419-1.75-8.977c0-3.562,0.583-6.541,1.75-8.936
				c1.167-2.391,2.553-4.358,4.145-5.892c2.334-2.148,4.942-3.593,7.831-4.327c2.883-0.738,6.506-1.105,10.864-1.105
				c4.358,0,7.968,0.367,10.823,1.105c2.855,0.734,5.443,2.179,7.784,4.327c1.592,1.534,2.971,3.501,4.138,5.892
				c1.167,2.395,1.751,5.374,1.751,8.936c0,3.558-0.584,6.551-1.751,8.977c-1.167,2.427-2.546,4.406-4.138,5.941
				c-2.34,2.148-4.928,3.592-7.784,4.327C79.447,364.25,75.837,364.616,71.479,364.616z M71.479,352.647
				c2.457,0,4.695-0.155,6.726-0.463c2.025-0.306,3.652-1.075,4.88-2.299c1.407-1.414,2.113-3.288,2.113-5.617
				c0-2.275-0.706-4.114-2.113-5.528c-1.229-1.229-2.855-1.994-4.88-2.303c-2.031-0.305-4.269-0.46-6.726-0.46
				c-2.519,0-4.79,0.155-6.815,0.46c-2.025,0.309-3.652,1.075-4.88,2.303c-1.413,1.414-2.12,3.253-2.12,5.528
				c0,2.33,0.707,4.203,2.12,5.617c1.229,1.225,2.855,1.994,4.88,2.299C66.689,352.492,68.96,352.647,71.479,352.647z"/>
			<path style="fill:#FFFFFF;" d="M47.444,400.902l19.985-11.788l-5.71-5.065H47.444v-11.973h65.571v11.973H75.81l19.615,15.929
				v14.461l-19.34-17.13l-28.64,18.417V400.902z"/>
		</g>
		<g>
			<rect x="144.244" y="248.204" style="fill:#565657;" width="168.256" height="23.254"/>
		</g>
		<g>
			<rect x="185.905" y="332.329" style="fill:#565657;" width="225.793" height="3.283"/>
		</g>
		<g>
			<rect x="185.905" y="393.885" style="fill:#565657;" width="225.793" height="3.283"/>
		</g>
		<g>
			<rect x="185.905" y="455.442" style="fill:#565657;" width="225.793" height="3.283"/>
		</g>
	</g>
	<polygon style="opacity:0.05;fill:#231815;" points="489.946,88.851 489.946,138.257 452.768,138.257 452.768,153.859 
		483.691,153.859 483.691,203.265 452.768,203.265 452.768,512 71.506,512 71.506,473.417 119.014,425.909 123.793,421.2 
		146.353,398.64 150.499,394.494 156.403,388.59 209.393,335.6 212.696,332.297 215.788,329.205 234.272,310.792 296.89,248.173 
		364.287,180.706 376.305,168.688 391.134,153.859 456.142,88.851 	"/>
</g>
</svg>