<?xml version="1.0" encoding="UTF-8" standalone="no"?>
<!-- SQL / DDL / DML file: indigo sheet with stacked "DB cylinder" lines. -->
<svg xmlns="http://www.w3.org/2000/svg" width="16" height="16" viewBox="0 0 16 16">
  <path d="M3 1.6 h7.2 l3.2 3.2 v9.6 a0.8 0.8 0 0 1 -0.8 0.8 h-9.6 a0.8 0.8 0 0 1 -0.8 -0.8 v-12 a0.8 0.8 0 0 1 0.8 -0.8 z" fill="#4B4FA8"/>
  <path d="M10.2 1.6 v3.2 h3.2 z" fill="#2F3273"/>
  <ellipse cx="8" cy="7.4" rx="3.2" ry="1.0" fill="none" stroke="#FFFFFF" stroke-width="1.0"/>
  <path d="M4.8 7.4 v2.4 a3.2 1.0 0 0 0 6.4 0 v-2.4" fill="none" stroke="#FFFFFF" stroke-width="1.0"/>
  <path d="M4.8 9.8 v2.0 a3.2 1.0 0 0 0 6.4 0 v-2.0" fill="none" stroke="#FFFFFF" stroke-width="1.0"/>
</svg>
